<svg width="22" height="22" viewBox="0 0 22 22" fill="none" xmlns="http://www.w3.org/2000/svg">
    <circle cx="11" cy="11" r="11" fill="#373737"/>
    <path d="M9.97497 14.1466L8.56088 15.5607C7.97463 16.1469 7.02524 16.1469 6.43948 15.5608C5.85361 14.9749 5.85361 14.0254 6.43937 13.4397L9.26803 10.611C9.85379 10.0252 10.8033 10.0252 11.389 10.611C11.5843 10.8063 11.9009 10.8063 12.0962 10.611C12.2915 10.4158 12.2915 10.0991 12.0962 9.90387C11.1199 8.92755 9.5372 8.92755 8.56088 9.90387L5.73224 12.7325C4.75592 13.7088 4.75592 15.2915 5.73224 16.2678C6.70844 17.2446 8.29122 17.2446 9.26805 16.2678L10.6821 14.8537C10.8774 14.6585 10.8774 14.3418 10.6821 14.1466C10.4869 13.9513 10.1702 13.9513 9.97497 14.1466Z" fill="white"/>
    <path d="M16.2679 5.73224C15.2916 4.75592 13.7084 4.75592 12.7321 5.73224L11.0355 7.42883C10.8402 7.6241 10.8402 7.94072 11.0355 8.13598C11.2308 8.33125 11.5474 8.33125 11.7427 8.13598L13.4392 6.43939C14.025 5.85361 14.975 5.85361 15.5608 6.43939C16.1465 7.02515 16.1465 7.97463 15.5608 8.56039L12.4496 11.6716C11.8638 12.2574 10.9144 12.2574 10.3286 11.6716C10.1333 11.4763 9.81671 11.4763 9.62144 11.6716C9.42617 11.8669 9.42617 12.1835 9.62144 12.3787C10.5978 13.3551 12.1804 13.3551 13.1567 12.3787L16.2679 9.26756C17.2442 8.29124 17.2442 6.70856 16.2679 5.73224Z" fill="white"/>
    </svg>
