<svg width="22" height="22" viewBox="0 0 22 22" fill="none" xmlns="http://www.w3.org/2000/svg">
    <path fill-rule="evenodd" clip-rule="evenodd" d="M4.69351 10.8895C4.69351 10.1822 4.81091 9.50398 5.02071 8.86796L1.35058 6.06543C0.635275 7.51766 0.232361 9.15415 0.232361 10.8895C0.232361 12.6235 0.634935 14.2588 1.34905 15.7102L5.01714 12.9022C4.80938 12.2691 4.69351 11.5934 4.69351 10.8895Z" fill="#373737"/>
    <path fill-rule="evenodd" clip-rule="evenodd" d="M11.1375 4.45486C12.6741 4.45486 14.062 4.99933 15.1525 5.89024L18.3248 2.72239C16.3917 1.03944 13.9133 0 11.1375 0C6.82795 0 3.12414 2.46445 1.35067 6.06549L5.02063 8.86802C5.86627 6.30115 8.27678 4.45486 11.1375 4.45486Z" fill="#373737"/>
    <path fill-rule="evenodd" clip-rule="evenodd" d="M11.1375 17.3243C8.27695 17.3243 5.86644 15.478 5.0208 12.9111L1.35067 15.7132C3.12414 19.3147 6.82795 21.7792 11.1375 21.7792C13.7973 21.7792 16.3368 20.8347 18.2426 19.0651L14.759 16.372C13.776 16.9911 12.5382 17.3243 11.1375 17.3243Z" fill="#373737"/>
    <path fill-rule="evenodd" clip-rule="evenodd" d="M21.5467 10.8895C21.5467 10.246 21.4475 9.553 21.2988 8.90967H11.1375V13.117H16.9865C16.694 14.5515 15.8981 15.6542 14.7589 16.3719L18.2426 19.065C20.2445 17.207 21.5467 14.439 21.5467 10.8895Z" fill="#373737"/>
    </svg>
