<svg width="21" height="17" viewBox="0 0 21 17" fill="none" xmlns="http://www.w3.org/2000/svg">
    <path d="M9.73911 3.05305L10.4959 3.9405L11.2574 3.05707C12.7813 1.28928 15.0248 0.711542 16.8583 1.12993C18.6511 1.53904 20 2.86824 20 5.02393C20 6.05948 19.4835 7.27136 18.5463 8.58016C17.6228 9.8699 16.371 11.1427 15.0874 12.2783C13.8086 13.4096 12.5254 14.3809 11.5595 15.0706C11.1337 15.3747 10.7712 15.6228 10.5 15.8046C10.2288 15.6228 9.86627 15.3747 9.4405 15.0706C8.47461 14.3809 7.19142 13.4096 5.9126 12.2783C4.62902 11.1427 3.37723 9.8699 2.45367 8.58016C1.51646 7.27136 1 6.05948 1 5.02393C1 2.87297 2.35581 1.54391 4.15872 1.13495C6.00174 0.716881 8.24217 1.29771 9.73911 3.05305Z" stroke="#373737" stroke-width="2"/>
    </svg>
