<svg width="24" height="19" viewBox="0 0 24 19" fill="none" xmlns="http://www.w3.org/2000/svg">
<path d="M7.54753 19C16.6042 19 21.5578 11.6895 21.5578 5.34986C21.5578 5.14224 21.5578 4.93554 21.5434 4.72975C22.507 4.05058 23.3389 3.20975 24 2.24647C23.1014 2.63444 22.148 2.88882 21.1718 3.00126C22.1995 2.40189 22.9692 1.45843 23.3366 0.347733C22.3701 0.906508 21.3126 1.30037 20.2099 1.51223C19.2789 0.547632 17.9786 0 16.6196 0C13.9158 0 11.691 2.16769 11.691 4.80195C11.691 5.1674 11.7338 5.53171 11.8185 5.88767C7.86145 5.69444 4.16948 3.87083 1.67039 0.87527C0.370828 3.05493 1.04325 5.87963 3.19486 7.27942C2.41134 7.25682 1.64466 7.05084 0.96 6.67895V6.73974C0.960656 9.01475 2.62158 10.9921 4.91039 11.4426C4.18552 11.6352 3.42478 11.6633 2.68706 11.5249C3.33052 13.4743 5.18602 14.8181 7.28738 14.8565C5.54409 16.1913 3.38939 16.9164 1.17216 16.9142C0.780375 16.9135 0.388969 16.8904 0 16.845C2.25159 18.2528 4.87219 18.9997 7.54753 18.9963" fill="#373737"/>
</svg>
